<?xml version="1.0" encoding="iso-8859-1"?>
<!-- Uploaded to: SVG Repo, www.svgrepo.com, Generator: SVG Repo Mixer Tools -->
<svg fill="#000000" height="800px" width="800px" version="1.1" id="Layer_1" xmlns="http://www.w3.org/2000/svg" xmlns:xlink="http://www.w3.org/1999/xlink" 
	 viewBox="0 0 503.467 503.467" xml:space="preserve">
<g transform="translate(1 1)">
	<g>
		<g>
			<path d="M345.453,172.252V32.28c0-18.773-15.36-33.28-33.28-33.28H190.147c-18.773,0-33.28,15.36-33.28,33.28v139.384
				c-27.214,19.097-42.667,50.013-42.667,82.482v137.387c0,61.44,49.493,110.933,110.933,110.933h51.2
				c61.44,0,110.933-49.493,110.933-110.933V254.147C387.267,221.213,372.14,191.307,345.453,172.252z M173.933,109.933v-51.2V32.28
				c0-8.533,6.827-16.213,16.213-16.213h120.32c9.387,0,16.213,7.68,16.213,16.213v22.419c-1.315-2.796-4.07-4.499-7.68-4.499
				c-5.12,0-8.533,4.267-8.533,8.533c0,5.12,3.413,8.533,8.533,8.533c3.61,0,6.365-1.703,7.68-4.499v43.131
				c-1.315-2.796-4.07-4.499-7.68-4.499c-5.12,0-8.533,4.267-8.533,8.533c0,5.12,3.413,8.533,8.533,8.533
				c3.61,0,6.365-1.703,7.68-4.499v43.131c-1.315-2.796-4.07-4.499-7.68-4.499c-5.12,0-8.533,4.267-8.533,8.533
				c0,5.12,3.413,8.533,8.533,8.533c3.61,0,6.365-1.703,7.68-4.499v43.131c-1.315-2.796-4.07-4.499-7.68-4.499
				c-5.12,0-8.533,4.267-8.533,8.533c0,5.12,3.413,8.533,8.533,8.533c3.61,0,6.365-1.703,7.68-4.499v14.739
				c0,5.672-0.839,11.174-2.382,16.392c-0.895,2.661-1.962,5.238-3.196,7.718C320.439,255.079,319.74,255,319,255
				c-5.12,0-8.533,4.267-8.533,8.533c0,2.028,0.542,3.781,1.507,5.168c-9.088,10.174-21.539,17.259-35.676,19.587
				c-0.357-4.646-3.665-7.689-8.498-7.689c-5.12,0-8.533,4.267-8.533,8.533H242.2c0-5.12-3.413-8.533-8.533-8.533
				c-4.782,0-8.074,3.723-8.487,7.69c-14.142-2.327-26.597-9.412-35.687-19.589c0.965-1.386,1.507-3.14,1.507-5.168
				c0-5.12-3.413-8.533-8.533-8.533c-0.732,0-1.424,0.096-2.081,0.258c-4.124-8.275-6.452-17.626-6.452-27.564v-15.36v-51.2v-0.853
				V109.933z M370.2,391.533c0,52.053-41.813,93.867-93.867,93.867h-51.2c-52.053,0-93.867-41.813-93.867-93.867V254.147
				c0-23.04,9.387-45.227,25.6-60.587v34.133v3.413c0,41.813,34.133,75.093,75.947,75.093h2.56h30.72h3.413
				c40.96,0,75.093-33.28,75.947-75.093v-36.653c15.679,16.101,24.747,37.068,24.747,59.693V391.533z"/>
			<path d="M310.467,434.2H191c-5.12,0-8.533,3.413-8.533,8.533s3.413,8.533,8.533,8.533h119.467c5.12,0,8.533-3.413,8.533-8.533
				S315.587,434.2,310.467,434.2z"/>
			<path d="M310.467,400.067H191c-5.12,0-8.533,3.413-8.533,8.533s3.413,8.533,8.533,8.533h119.467c5.12,0,8.533-3.413,8.533-8.533
				S315.587,400.067,310.467,400.067z"/>
			<path d="M216.6,255c-5.12,0-8.533,4.267-8.533,8.533c0,5.12,3.413,8.533,8.533,8.533c5.12,0,8.533-3.413,8.533-8.533
				C225.133,258.413,221.72,255,216.6,255z"/>
			<path d="M284.867,255c-5.12,0-8.533,4.267-8.533,8.533c0,5.12,3.413,8.533,8.533,8.533c5.12,0,8.533-3.413,8.533-8.533
				C293.4,258.413,289.987,255,284.867,255z"/>
			<path d="M250.733,255c-5.12,0-8.533,4.267-8.533,8.533c0,5.12,3.413,8.533,8.533,8.533s8.533-3.413,8.533-8.533
				C259.267,258.413,255.853,255,250.733,255z"/>
			<path d="M199.533,229.4c-5.12,0-8.533,4.267-8.533,8.533c0,5.12,3.413,8.533,8.533,8.533s8.533-3.413,8.533-8.533
				S204.653,229.4,199.533,229.4z"/>
			<path d="M216.6,220.867c5.12,0,8.533-3.413,8.533-8.533c0-5.12-3.413-8.533-8.533-8.533c-5.12,0-8.533,4.267-8.533,8.533
				C208.067,217.453,211.48,220.867,216.6,220.867z"/>
			<path d="M284.867,220.867c5.12,0,8.533-3.413,8.533-8.533c0-5.12-3.413-8.533-8.533-8.533c-5.12,0-8.533,4.267-8.533,8.533
				C276.333,217.453,279.747,220.867,284.867,220.867z"/>
			<path d="M250.733,220.867c5.12,0,8.533-3.413,8.533-8.533c0-5.12-3.413-8.533-8.533-8.533s-8.533,4.267-8.533,8.533
				C242.2,217.453,245.613,220.867,250.733,220.867z"/>
			<path d="M233.667,229.4c-5.12,0-8.533,4.267-8.533,8.533c0,5.12,3.413,8.533,8.533,8.533s8.533-3.413,8.533-8.533
				S238.787,229.4,233.667,229.4z"/>
			<path d="M267.8,229.4c-5.12,0-8.533,4.267-8.533,8.533c0,5.12,3.413,8.533,8.533,8.533s8.533-3.413,8.533-8.533
				S272.92,229.4,267.8,229.4z"/>
			<path d="M301.933,229.4c-5.12,0-8.533,4.267-8.533,8.533c0,5.12,3.413,8.533,8.533,8.533s8.533-3.413,8.533-8.533
				S307.053,229.4,301.933,229.4z"/>
			<path d="M199.533,195.267c5.12,0,8.533-3.413,8.533-8.533s-3.413-8.533-8.533-8.533S191,182.467,191,186.733
				C191,191.853,194.413,195.267,199.533,195.267z"/>
			<path d="M216.6,169.667c5.12,0,8.533-3.413,8.533-8.533s-3.413-8.533-8.533-8.533c-5.12,0-8.533,4.267-8.533,8.533
				C208.067,166.253,211.48,169.667,216.6,169.667z"/>
			<path d="M182.467,220.867c5.12,0,8.533-3.413,8.533-8.533c0-5.12-3.413-8.533-8.533-8.533s-8.533,4.267-8.533,8.533
				C173.933,217.453,177.347,220.867,182.467,220.867z"/>
			<path d="M182.467,169.667c5.12,0,8.533-3.413,8.533-8.533s-3.413-8.533-8.533-8.533s-8.533,4.267-8.533,8.533
				C173.933,166.253,177.347,169.667,182.467,169.667z"/>
			<path d="M284.867,152.6c-5.12,0-8.533,4.267-8.533,8.533c0,5.12,3.413,8.533,8.533,8.533c5.12,0,8.533-3.413,8.533-8.533
				S289.987,152.6,284.867,152.6z"/>
			<path d="M182.467,118.467c5.12,0,8.533-3.413,8.533-8.533s-3.413-8.533-8.533-8.533s-8.533,4.267-8.533,8.533
				C173.933,115.053,177.347,118.467,182.467,118.467z"/>
			<path d="M182.467,67.267c5.12,0,8.533-3.413,8.533-8.533s-3.413-8.533-8.533-8.533s-8.533,4.267-8.533,8.533
				C173.933,63.853,177.347,67.267,182.467,67.267z"/>
			<path d="M250.733,152.6c-5.12,0-8.533,4.267-8.533,8.533c0,5.12,3.413,8.533,8.533,8.533s8.533-3.413,8.533-8.533
				S255.853,152.6,250.733,152.6z"/>
			<path d="M233.667,178.2c-5.12,0-8.533,4.267-8.533,8.533c0,5.12,3.413,8.533,8.533,8.533s8.533-3.413,8.533-8.533
				S238.787,178.2,233.667,178.2z"/>
			<path d="M267.8,195.267c5.12,0,8.533-3.413,8.533-8.533s-3.413-8.533-8.533-8.533s-8.533,4.267-8.533,8.533
				C259.267,191.853,262.68,195.267,267.8,195.267z"/>
			<path d="M301.933,178.2c-5.12,0-8.533,4.267-8.533,8.533c0,5.12,3.413,8.533,8.533,8.533s8.533-3.413,8.533-8.533
				S307.053,178.2,301.933,178.2z"/>
			<path d="M199.533,144.067c5.12,0,8.533-3.413,8.533-8.533S204.653,127,199.533,127S191,131.267,191,135.533
				C191,140.653,194.413,144.067,199.533,144.067z"/>
			<path d="M216.6,101.4c-5.12,0-8.533,4.267-8.533,8.533c0,5.12,3.413,8.533,8.533,8.533c5.12,0,8.533-3.413,8.533-8.533
				S221.72,101.4,216.6,101.4z"/>
			<path d="M284.867,101.4c-5.12,0-8.533,4.267-8.533,8.533c0,5.12,3.413,8.533,8.533,8.533c5.12,0,8.533-3.413,8.533-8.533
				S289.987,101.4,284.867,101.4z"/>
			<path d="M216.6,67.267c5.12,0,8.533-3.413,8.533-8.533S221.72,50.2,216.6,50.2c-5.12,0-8.533,4.267-8.533,8.533
				C208.067,63.853,211.48,67.267,216.6,67.267z"/>
			<path d="M284.867,67.267c5.12,0,8.533-3.413,8.533-8.533s-3.413-8.533-8.533-8.533c-5.12,0-8.533,4.267-8.533,8.533
				C276.333,63.853,279.747,67.267,284.867,67.267z"/>
			<path d="M250.733,101.4c-5.12,0-8.533,4.267-8.533,8.533c0,5.12,3.413,8.533,8.533,8.533s8.533-3.413,8.533-8.533
				S255.853,101.4,250.733,101.4z"/>
			<path d="M233.667,144.067c5.12,0,8.533-3.413,8.533-8.533S238.787,127,233.667,127s-8.533,4.267-8.533,8.533
				C225.133,140.653,228.547,144.067,233.667,144.067z"/>
			<path d="M267.8,144.067c5.12,0,8.533-3.413,8.533-8.533S272.92,127,267.8,127s-8.533,4.267-8.533,8.533
				C259.267,140.653,262.68,144.067,267.8,144.067z"/>
			<path d="M301.933,127c-5.12,0-8.533,4.267-8.533,8.533c0,5.12,3.413,8.533,8.533,8.533s8.533-3.413,8.533-8.533
				S307.053,127,301.933,127z"/>
			<path d="M199.533,92.867c5.12,0,8.533-3.413,8.533-8.533c0-5.12-3.413-8.533-8.533-8.533S191,80.067,191,84.333
				C191,89.453,194.413,92.867,199.533,92.867z"/>
			<path d="M233.667,75.8c-5.12,0-8.533,4.267-8.533,8.533c0,5.12,3.413,8.533,8.533,8.533s8.533-3.413,8.533-8.533
				C242.2,79.213,238.787,75.8,233.667,75.8z"/>
			<path d="M267.8,75.8c-5.12,0-8.533,4.267-8.533,8.533c0,5.12,3.413,8.533,8.533,8.533s8.533-3.413,8.533-8.533
				C276.333,79.213,272.92,75.8,267.8,75.8z"/>
			<path d="M301.933,75.8c-5.12,0-8.533,4.267-8.533,8.533c0,5.12,3.413,8.533,8.533,8.533s8.533-3.413,8.533-8.533
				C310.467,79.213,307.053,75.8,301.933,75.8z"/>
			<path d="M199.533,41.667c5.12,0,8.533-3.413,8.533-8.533s-3.413-8.533-8.533-8.533S191,28.867,191,33.133
				C191,38.253,194.413,41.667,199.533,41.667z"/>
			<path d="M233.667,41.667c5.12,0,8.533-3.413,8.533-8.533s-3.413-8.533-8.533-8.533s-8.533,4.267-8.533,8.533
				C225.133,38.253,228.547,41.667,233.667,41.667z"/>
			<path d="M267.8,41.667c5.12,0,8.533-3.413,8.533-8.533S272.92,24.6,267.8,24.6s-8.533,4.267-8.533,8.533
				C259.267,38.253,262.68,41.667,267.8,41.667z"/>
			<path d="M301.933,41.667c5.12,0,8.533-3.413,8.533-8.533s-3.413-8.533-8.533-8.533s-8.533,4.267-8.533,8.533
				C293.4,38.253,296.813,41.667,301.933,41.667z"/>
			<path d="M250.733,67.267c5.12,0,8.533-3.413,8.533-8.533s-3.413-8.533-8.533-8.533s-8.533,4.267-8.533,8.533
				C242.2,63.853,245.613,67.267,250.733,67.267z"/>
		</g>
	</g>
</g>
</svg>